<?xml version="1.0" standalone="no"?>
<!DOCTYPE svg PUBLIC "-//W3C//DTD SVG 20010904//EN"
 "http://www.w3.org/TR/2001/REC-SVG-20010904/DTD/svg10.dtd">
<svg version="1.0" xmlns="http://www.w3.org/2000/svg"
 width="500.000000pt" height="500.000000pt" viewBox="0 0 500.000000 500.000000"
 preserveAspectRatio="xMidYMid meet">

<g transform="translate(0.000000,500.000000) scale(0.100000,-0.100000)"
fill="#000000" stroke="none">
<path d="M0 2500 l0 -2500 2500 0 2500 0 0 2500 0 2500 -2500 0 -2500 0 0
-2500z m2100 650 c0 -294 2 -331 16 -337 12 -4 110 88 353 331 l336 336 203 0
202 0 -2 -702 c-3 -674 -4 -703 -21 -706 -14 -3 -114 91 -351 327 -182 182
-336 331 -341 331 -5 0 -159 -149 -341 -331 -239 -238 -337 -330 -348 -326
-14 6 -16 76 -16 707 l0 700 155 0 155 0 0 -330z m-406 -1451 c3 -17 6 -43 7
-58 0 -23 1 -24 9 -6 5 11 11 37 15 58 9 53 22 46 36 -20 l13 -58 8 54 c9 56
14 69 24 58 10 -9 -20 -170 -33 -174 -7 -3 -14 15 -18 47 -4 27 -11 50 -15 50
-4 0 -11 -23 -15 -50 -4 -31 -11 -50 -18 -47 -10 3 -35 111 -36 160 -1 29 16
19 23 -14z m242 -26 c23 -104 25 -123 14 -123 -7 0 -14 9 -17 20 -3 11 -14 20
-24 20 -12 0 -19 -7 -19 -20 0 -11 -7 -20 -15 -20 -12 0 -14 7 -9 28 3 15 10
43 14 62 4 19 11 48 14 63 10 42 29 28 42 -30z m159 40 c12 -11 15 -24 10 -42
-10 -38 -10 -62 -2 -93 5 -20 4 -28 -6 -28 -7 0 -18 17 -23 37 -13 52 -34 55
-34 4 0 -23 -4 -41 -10 -41 -6 0 -10 37 -10 90 l0 90 29 0 c16 0 37 -7 46 -17z
m146 7 c16 -9 19 -22 19 -78 0 -77 -9 -92 -57 -92 l-33 0 0 90 c0 90 0 90 26
90 14 0 34 -5 45 -10z m109 -80 c0 -73 -3 -90 -15 -90 -12 0 -15 16 -15 83 0
46 3 87 7 90 18 18 23 0 23 -83z m140 80 c0 -5 -11 -10 -25 -10 -21 0 -25 -5
-25 -30 0 -23 4 -30 20 -30 11 0 20 -4 20 -10 0 -5 -9 -10 -20 -10 -16 0 -20
-7 -20 -30 0 -25 4 -30 25 -30 14 0 25 -4 25 -10 0 -5 -16 -10 -35 -10 l-35 0
0 90 0 90 35 0 c19 0 35 -4 35 -10z m128 -2 c14 -14 16 -64 3 -72 -5 -4 -3
-25 4 -51 11 -36 12 -45 1 -45 -7 0 -18 18 -25 40 -6 22 -16 40 -21 40 -6 0
-10 -18 -10 -40 0 -22 -4 -40 -10 -40 -6 0 -10 37 -10 90 l0 90 28 0 c15 0 33
-5 40 -12z m152 2 c0 -5 -11 -10 -25 -10 -21 0 -25 -5 -25 -30 0 -23 4 -30 20
-30 11 0 20 -4 20 -10 0 -5 -9 -10 -20 -10 -16 0 -20 -7 -20 -30 0 -25 4 -30
25 -30 14 0 25 -4 25 -10 0 -5 -16 -10 -35 -10 l-35 0 0 90 0 90 35 0 c19 0
35 -4 35 -10z m170 -80 c0 -73 -3 -90 -15 -90 -12 0 -15 16 -15 83 0 46 3 87
7 90 18 18 23 0 23 -83z m105 38 l24 -53 0 53 c1 28 6 52 11 52 6 0 10 -37 10
-90 0 -49 -3 -90 -6 -90 -3 0 -16 24 -29 53 l-24 52 0 -52 c-1 -29 -5 -53 -11
-53 -6 0 -10 37 -10 90 0 50 3 90 6 90 3 0 16 -24 29 -52z m193 40 c14 -14 16
-58 3 -58 -5 0 -12 11 -15 25 -7 28 -31 33 -40 9 -9 -23 -7 -97 3 -113 12 -19
41 -6 41 19 0 11 5 20 10 20 14 0 13 -43 -2 -58 -7 -7 -21 -12 -33 -12 -35 0
-45 20 -45 90 0 70 10 90 45 90 12 0 26 -5 33 -12z m92 -153 c0 -8 -4 -15 -10
-15 -5 0 -10 7 -10 15 0 8 5 15 10 15 6 0 10 -7 10 -15z"/>
<path d="M2793 3038 c-35 -35 -63 -70 -63 -79 0 -8 31 -45 69 -83 98 -97 102
-93 99 81 -3 129 -4 138 -23 141 -13 2 -40 -18 -82 -60z"/>
<path d="M1906 1647 c-5 -15 -6 -31 -2 -34 11 -11 18 5 14 34 l-4 28 -8 -28z"/>
<path d="M2040 1680 c0 -25 4 -31 18 -28 11 2 17 12 17 28 0 16 -6 26 -17 28
-14 3 -18 -3 -18 -28z"/>
<path d="M2200 1640 c0 -53 3 -70 14 -70 18 0 26 22 26 70 0 48 -8 70 -26 70
-11 0 -14 -17 -14 -70z"/>
<path d="M2570 1680 c0 -25 4 -31 18 -28 11 2 17 12 17 28 0 16 -6 26 -17 28
-14 3 -18 -3 -18 -28z"/>
</g>
</svg>
