<?xml version="1.0" standalone="no"?>
<!DOCTYPE svg PUBLIC "-//W3C//DTD SVG 20010904//EN"
 "http://www.w3.org/TR/2001/REC-SVG-20010904/DTD/svg10.dtd">
<svg version="1.0" xmlns="http://www.w3.org/2000/svg"
 width="500.000000pt" height="500.000000pt" viewBox="0 0 500.000000 500.000000"
 preserveAspectRatio="xMidYMid meet">

<g transform="translate(0.000000,500.000000) scale(0.100000,-0.100000)"
fill="#000000" stroke="none">
<path d="M0 4164 l0 -836 42 50 c24 27 90 102 148 167 58 66 157 178 220 250
63 72 180 204 259 293 l143 162 67 1 c36 0 681 0 1433 -1 1005 -1 1388 2 1447
11 64 9 84 9 96 -1 10 -8 44 -11 102 -9 49 2 117 2 153 1 l66 -2 129 -147 c72
-81 204 -231 295 -333 328 -371 358 -405 379 -430 l20 -25 1 843 0 842 -187
-2 -187 -3 -147 -190 c-160 -205 -246 -295 -285 -295 -14 0 -24 6 -24 14 0 14
74 121 243 349 48 64 87 119 87 122 0 3 -902 5 -2005 5 -1103 0 -2005 -3
-2005 -6 0 -4 31 -48 68 -98 182 -243 262 -357 262 -373 0 -21 -51 -15 -76 10
-12 12 -35 34 -51 48 -15 14 -97 114 -181 222 l-153 197 -179 0 -180 0 0 -836z"/>
<path d="M740 4133 c-41 -48 -95 -110 -120 -138 -25 -28 -115 -132 -200 -230
-85 -98 -215 -247 -287 -329 l-133 -151 3 -129 2 -129 230 -69 c189 -57 502
-152 735 -224 25 -8 56 -23 69 -34 23 -20 23 -21 6 -40 -22 -24 -44 -25 -123
-5 -33 9 -73 18 -89 20 -38 7 -135 29 -213 50 -36 9 -105 25 -155 36 -49 10
-155 34 -235 54 -80 19 -164 39 -187 44 l-43 8 0 -346 0 -346 310 -310 311
-310 -3 -223 c-1 -123 -6 -225 -10 -228 -5 -3 -4 -12 3 -20 6 -8 8 -14 4 -14
-4 0 -2 -7 5 -15 10 -12 9 -15 -6 -16 -11 0 -14 -3 -6 -6 6 -2 10 -9 6 -14 -3
-5 -1 -9 4 -9 6 0 10 -15 10 -34 0 -19 3 -39 7 -45 4 -7 -4 -11 -19 -11 -14 0
-28 -4 -31 -10 -4 -6 6 -10 21 -10 38 0 20 -17 -31 -29 -32 -7 -35 -9 -13 -10
40 -1 78 -22 78 -42 0 -19 -41 -33 -73 -24 -17 5 -19 4 -7 -4 8 -6 22 -11 31
-11 8 0 24 -6 35 -14 19 -14 19 -15 -5 -37 l-24 -23 21 -9 c63 -28 -21 -40
-107 -16 -51 15 -67 16 -74 6 -6 -9 -7 -8 -4 3 2 9 -7 19 -22 26 -21 9 -9 10
59 7 59 -2 79 0 65 6 -11 6 -40 8 -65 5 -25 -2 -39 -1 -32 2 23 11 12 24 -15
18 -20 -4 -24 -3 -14 4 11 8 11 10 0 15 -11 4 -12 7 -1 18 6 7 12 21 12 31 0
10 5 18 12 18 9 0 9 3 0 12 -10 10 -5 16 20 31 26 14 28 17 9 13 -13 -3 -39 4
-58 14 l-35 19 36 6 c41 8 46 20 14 30 -14 4 -18 8 -10 12 6 2 12 11 12 19 0
8 8 15 18 15 9 1 4 5 -13 9 l-30 7 33 8 c18 4 35 11 38 16 3 5 -2 6 -10 3 -8
-3 -23 -1 -33 5 -10 6 -12 11 -5 11 10 0 10 4 0 19 -7 11 -16 17 -22 14 -5 -3
-6 -1 -2 5 4 7 17 13 29 13 17 1 15 3 -8 9 l-30 8 27 1 c20 1 26 5 22 16 -5
11 1 15 22 16 l29 1 -28 12 c-15 7 -24 15 -21 19 4 4 -4 7 -17 7 l-24 1 27 17
c19 11 26 22 22 34 -3 10 0 18 6 18 6 0 8 4 5 10 -3 5 -16 10 -28 10 -22 1
-22 1 -3 15 11 8 16 15 11 15 -5 0 0 6 11 14 25 19 24 49 -1 58 -15 4 -11 6
15 7 22 1 30 4 22 10 -10 6 -10 10 2 21 9 7 13 16 10 21 -3 5 5 9 18 10 22 0
22 1 3 9 -18 7 -19 8 -2 15 9 4 17 12 17 19 0 6 9 17 20 24 20 12 19 14 -22
53 -24 22 -152 148 -286 281 l-242 242 0 -1057 0 -1057 239 0 c132 0 246 3
255 6 21 8 20 33 -1 51 -10 7 -13 13 -8 12 6 -1 18 1 28 6 10 4 35 3 56 -4 56
-16 62 -13 15 8 -70 32 -88 36 -81 17 8 -20 0 -21 -18 -2 -20 20 2 36 57 43
24 3 57 11 75 19 43 19 50 18 58 -14 17 -61 19 -59 -44 -37 -22 8 -41 10 -41
5 0 -6 4 -10 9 -10 5 0 31 -9 57 -20 46 -20 46 -21 29 -40 -10 -11 -29 -20
-42 -20 -14 0 -21 -4 -18 -10 4 -7 244 -10 688 -10 584 1 685 3 701 15 26 20
42 19 25 -1 -11 -14 -4 -15 77 -11 158 8 259 44 147 53 -38 3 -51 10 -39 21 9
9 82 8 120 -2 20 -6 27 -5 22 3 -4 6 -22 14 -41 18 -33 6 -59 24 -36 24 6 0
11 7 11 15 0 8 3 14 8 13 4 0 15 2 24 6 24 11 13 26 -17 26 -13 0 -27 5 -31
11 -5 9 3 10 30 5 27 -5 41 -3 52 9 14 13 14 15 0 15 -21 0 -20 5 6 35 16 19
27 23 47 18 14 -3 23 -3 20 1 -9 9 -130 38 -136 32 -2 -2 8 -6 22 -10 29 -7
34 -25 8 -27 -31 -2 -47 2 -58 17 -5 7 -26 13 -45 13 -19 0 -48 2 -65 4 -16 2
-36 5 -43 5 -18 3 -5 22 15 22 8 0 40 7 70 16 40 12 52 19 44 27 -19 19 -12
45 12 50 21 4 21 4 -3 6 -19 1 -22 3 -11 10 10 7 0 8 -30 6 l-44 -5 40 14 c31
10 36 14 20 18 -19 5 -18 6 5 17 22 10 20 11 -20 6 -30 -3 -38 -2 -25 4 l20 8
-20 5 c-16 4 -14 7 12 13 18 4 30 11 28 16 -3 4 7 15 22 24 l28 15 -30 -6
c-16 -3 -37 -8 -45 -10 -8 -2 -28 1 -45 6 l-30 10 33 -5 c20 -3 31 -1 27 5 -7
12 37 24 62 16 10 -3 23 -2 30 2 15 9 -5 37 -32 46 -11 3 -2 4 20 2 22 -2 34
-2 27 1 -6 2 -10 9 -6 14 3 6 -11 7 -37 3 -29 -5 -40 -4 -35 4 4 7 -5 9 -26 7
-18 -2 -27 -1 -20 2 21 8 2 23 -29 23 -18 0 -28 4 -24 10 3 6 17 10 31 10 13
0 24 5 24 10 0 6 7 10 16 10 8 0 12 5 9 10 -4 6 -9 9 -13 6 -4 -2 -16 0 -27 5
-19 7 -19 8 3 8 23 1 31 26 10 34 -7 3 2 8 20 12 32 8 45 25 17 25 -8 0 -15 7
-15 15 0 9 9 15 21 15 18 0 20 2 9 15 -7 9 -19 14 -27 11 -8 -3 -11 -1 -8 4 3
6 12 10 18 10 7 0 13 9 13 20 0 13 -7 20 -20 20 -20 0 -20 0 1 15 12 8 21 24
20 34 -1 16 -7 19 -32 14 l-30 -5 28 20 c16 11 29 23 28 28 0 5 10 14 22 21
22 12 22 12 -3 13 -14 0 -32 5 -40 10 -12 8 -10 10 10 11 17 1 19 3 8 6 -22 5
-24 23 -3 23 8 0 15 5 15 10 0 6 -16 10 -37 10 -20 0 -33 3 -29 7 4 4 23 6 42
5 20 -2 42 2 49 8 13 11 41 115 36 134 -1 5 5 6 14 3 11 -5 15 1 15 23 0 20 5
30 15 30 12 0 15 -17 15 -97 0 -97 9 -121 16 -41 6 67 13 92 29 104 8 6 15 16
15 23 0 6 17 11 40 11 22 0 40 -4 40 -10 0 -5 -9 -10 -20 -10 -16 0 -20 -7
-20 -31 0 -18 4 -28 10 -24 6 4 8 10 5 15 -3 4 14 12 37 16 35 5 39 8 23 15
-17 6 -17 8 -2 8 9 1 17 6 17 11 0 6 18 10 40 10 51 0 70 -31 50 -80 -15 -37
-10 -46 13 -20 9 11 13 20 9 20 -4 0 0 5 8 10 13 9 13 10 0 11 -8 0 -4 5 10 9
24 8 24 8 3 9 -16 1 -21 5 -16 17 4 12 7 13 14 3 6 -11 9 -10 15 4 4 12 17 17
45 17 21 0 39 -4 39 -10 0 -5 -9 -10 -20 -10 -16 0 -20 -7 -20 -31 0 -31 0
-31 41 -25 22 4 38 3 35 -2 -2 -4 4 -14 16 -21 15 -9 18 -10 13 0 -6 8 -4 10
6 3 8 -4 26 -9 41 -10 27 -2 28 -1 28 52 0 41 4 54 15 54 12 0 15 -17 15 -90
0 -87 -1 -90 -25 -96 -14 -3 -32 -4 -40 0 -8 3 -15 1 -15 -4 0 -6 7 -10 15
-10 8 0 15 -5 15 -11 0 -5 -5 -7 -12 -3 -7 4 -8 3 -4 -4 4 -7 23 -12 42 -12
19 0 34 -5 34 -11 0 -5 3 -8 8 -6 4 3 16 1 27 -3 16 -6 13 -8 -18 -14 -39 -7
-51 -26 -17 -26 16 0 20 -6 18 -30 -2 -29 -5 -30 -40 -28 -21 1 -41 -1 -44 -5
-4 -4 2 -7 12 -7 11 0 29 -7 40 -16 18 -14 18 -15 -6 -9 l-25 6 21 -19 c13
-11 34 -17 52 -16 17 1 33 -4 35 -10 3 -8 -4 -11 -25 -8 -18 3 -28 1 -25 -5 3
-5 29 -8 58 -7 66 3 51 -12 -20 -19 -90 -9 -85 -29 8 -30 48 -1 58 -4 49 -14
-7 -9 -24 -11 -54 -7 -36 5 -44 3 -44 -10 0 -10 9 -16 24 -16 14 0 28 -5 31
-10 3 -6 17 -7 31 -4 17 4 24 2 24 -8 0 -11 -10 -13 -49 -8 -27 3 -57 3 -67 0
-17 -6 -17 -7 0 -13 10 -4 34 -7 54 -8 20 0 31 -3 24 -6 -6 -2 -10 -9 -6 -14
3 -5 -6 -9 -20 -9 -14 0 -26 -4 -26 -10 0 -5 8 -10 18 -10 14 0 15 -2 2 -10
-11 -7 -7 -10 20 -11 19 -1 43 0 53 1 10 1 24 -4 32 -10 8 -6 24 -9 37 -5 18
5 20 4 7 -4 -10 -6 -35 -7 -68 -2 -31 5 -54 4 -57 -1 -4 -5 -17 -7 -31 -3 -17
4 -23 2 -18 -6 4 -6 24 -9 45 -7 21 2 36 0 34 -3 -8 -13 44 -19 74 -8 17 6 43
9 59 6 27 -4 27 -4 -4 -6 -17 0 -35 -5 -38 -11 -3 -5 -15 -10 -26 -10 -11 0
-17 -4 -14 -10 3 -5 0 -8 -7 -6 -35 11 -78 15 -73 7 3 -5 -3 -12 -12 -14 -14
-4 -13 -5 4 -6 12 0 24 -5 27 -9 3 -5 20 -7 38 -4 18 2 44 5 58 6 14 2 45 4
70 5 34 1 41 4 30 12 -12 8 -12 10 4 7 42 -7 18 -23 -43 -30 -62 -7 -95 -18
-53 -18 13 0 22 -6 22 -15 0 -16 -18 -16 -98 1 -16 3 -21 1 -17 -7 6 -8 -2 -9
-25 -4 -23 5 -30 4 -26 -4 4 -6 14 -11 22 -11 8 0 14 -4 14 -9 0 -4 11 -6 25
-3 13 2 36 1 49 -2 41 -10 20 -34 -37 -41 -48 -7 -50 -8 -27 -18 l25 -10 -30
-7 c-16 -4 -41 -5 -55 -3 -14 3 -36 0 -50 -6 -21 -10 -18 -10 20 -6 l45 5 -40
-14 c-56 -19 -33 -19 51 0 43 10 79 14 90 9 11 -5 22 -9 26 -9 3 -1 10 -5 15
-10 4 -5 -4 -7 -19 -4 -16 3 -28 1 -28 -3 0 -5 -10 -9 -22 -10 -22 -1 -22 -1
3 -12 14 -7 24 -18 22 -24 -3 -8 6 -13 24 -14 15 0 37 -4 48 -8 17 -7 14 -10
-20 -20 -22 -6 -53 -11 -70 -12 -30 -1 -30 -1 5 -9 170 -38 181 -40 200 -30
10 5 28 10 40 10 30 0 19 -25 -11 -26 -14 0 -29 -3 -35 -7 -6 -3 -37 -8 -70
-11 -39 -3 -58 -9 -56 -17 2 -7 -5 -10 -18 -6 -11 3 -39 -4 -62 -15 -36 -17
-55 -20 -127 -15 -50 3 -78 1 -70 -4 8 -5 10 -9 5 -9 -5 0 -1 -9 10 -21 13
-14 25 -18 42 -14 13 3 30 1 37 -5 10 -8 35 -8 95 1 74 10 81 13 77 31 -5 18
-2 19 31 14 20 -3 45 -6 54 -7 9 0 18 -8 20 -17 3 -13 13 -16 47 -13 37 2 43
0 38 -13 -5 -13 -1 -15 21 -10 24 5 25 4 9 -6 -15 -10 -30 -9 -72 4 -50 16
-111 13 -100 -4 3 -5 -7 -10 -22 -12 -28 -3 -28 -3 7 -15 19 -6 52 -14 73 -18
21 -3 47 -15 58 -26 10 -10 19 -14 19 -9 0 6 8 10 18 10 10 0 22 4 28 9 10 10
36 14 74 11 19 -1 13 -5 -25 -18 -27 -9 -50 -21 -50 -27 0 -7 279 -11 813 -13
l812 -2 0 1062 c0 584 -2 1059 -4 1057 -3 -2 -133 -131 -290 -286 -205 -203
-281 -284 -273 -292 7 -5 24 -12 38 -16 21 -5 26 -11 21 -28 -3 -12 -10 -25
-16 -29 -6 -4 1 -8 16 -8 16 0 27 -5 25 -12 -1 -6 9 -17 23 -25 20 -10 21 -13
7 -13 -15 0 -16 -2 -5 -13 7 -7 21 -16 31 -20 26 -10 22 -47 -5 -48 -22 -1
-22 -1 2 -9 21 -7 22 -8 5 -10 -20 -1 -20 -1 0 -9 18 -7 17 -9 -10 -19 -28
-10 -26 -11 18 -6 53 5 56 -9 5 -21 l-33 -8 28 -4 c24 -4 29 -9 26 -29 0 -4 5
-11 13 -15 9 -6 6 -9 -12 -10 -23 0 -23 -1 -5 -9 15 -6 6 -9 -35 -11 l-55 -2
55 -7 c30 -4 43 -7 28 -8 -44 -3 -42 -21 2 -28 28 -5 37 -10 28 -15 -10 -7 -8
-9 7 -10 17 -1 16 -2 -5 -9 -24 -8 -23 -8 8 -9 42 -1 32 -21 -11 -22 -18 -1
-24 -3 -14 -6 9 -2 17 -9 17 -14 0 -5 7 -9 16 -9 8 0 12 -4 9 -10 -4 -6 7 -10
24 -10 35 0 38 -5 17 -26 -9 -9 -37 -14 -73 -15 -57 -1 -57 -1 -23 -12 l35
-11 -40 -5 c-49 -7 -35 -19 26 -22 24 -2 58 -8 74 -16 28 -12 27 -12 -19 -6
-37 5 -47 3 -42 -6 5 -7 13 -10 20 -8 6 2 20 1 31 -3 18 -7 18 -8 -7 -15 -39
-10 -35 -22 11 -30 23 -4 42 -13 46 -23 5 -14 4 -15 -6 -5 -15 15 -33 17 -24
3 4 -6 -7 -10 -27 -9 -31 1 -32 1 -8 9 14 4 23 9 20 10 -19 6 -87 6 -114 0
-30 -7 -29 -7 19 -15 66 -10 86 -20 57 -29 -26 -9 -30 -28 -4 -25 9 2 30 0 46
-5 23 -6 27 -9 15 -17 -11 -7 -10 -9 6 -10 l20 0 -20 -9 c-18 -8 -17 -9 7 -9
49 -2 41 -21 -9 -22 -26 -1 -51 -1 -55 0 -5 0 -8 -4 -8 -9 0 -6 20 -10 45 -10
25 0 45 -4 45 -10 0 -5 9 -10 19 -10 11 0 23 -5 26 -11 7 -10 -8 -9 -99 5 -5
0 -10 -4 -12 -10 -3 -6 24 -16 63 -25 38 -8 58 -15 45 -17 -12 -2 -20 -8 -17
-13 4 -5 -3 -9 -14 -9 -12 0 -21 -4 -21 -10 0 -11 -90 -14 -139 -4 -48 10 -37
26 12 19 30 -5 54 -2 78 9 l34 16 -32 -3 c-18 -2 -34 1 -36 6 -1 5 -25 2 -54
-6 -36 -11 -54 -12 -61 -5 -19 19 5 45 48 52 22 3 40 11 40 16 0 6 -11 8 -26
4 -19 -5 -25 -4 -20 5 4 6 22 11 39 12 l32 1 -35 9 c-25 6 -38 4 -45 -5 -12
-15 -84 -41 -92 -32 -3 3 7 8 21 12 19 4 25 11 21 22 -3 8 0 20 7 25 9 6 3 7
-17 4 -16 -3 -43 -3 -60 0 -26 5 -27 7 -10 14 11 4 27 8 35 8 13 1 13 0 0 -9
-11 -7 -12 -10 -2 -10 7 0 20 7 29 15 13 14 12 17 -9 35 -12 11 -17 19 -10 20
9 0 10 4 0 19 -9 15 -9 23 1 35 11 13 11 16 -3 16 -9 0 -15 3 -15 8 4 21 -3
31 -21 34 -27 4 -27 22 0 26 11 2 20 10 20 19 0 12 -8 14 -37 10 -26 -5 -33
-3 -23 3 8 5 11 10 6 10 -5 0 -3 7 5 16 10 13 10 17 -2 25 -12 7 -11 9 2 9 30
0 30 40 0 71 -27 27 -28 27 -7 38 20 9 20 10 -4 11 -23 1 -23 2 -5 10 12 5 14
9 6 9 -11 1 -10 5 5 16 13 10 14 14 5 15 -10 0 -11 3 -2 14 9 10 9 15 1 18 -7
2 -13 37 -16 86 -2 46 -6 87 -9 91 -2 5 -7 44 -10 87 l-6 80 316 314 315 314
0 343 0 343 -22 -4 c-36 -8 -143 -33 -278 -65 -69 -17 -170 -40 -225 -51 -55
-12 -115 -26 -134 -32 -39 -12 -142 -36 -186 -43 -16 -3 -56 -12 -88 -20 -71
-18 -97 -18 -119 -1 -26 19 -22 32 15 54 25 16 677 220 980 307 l57 16 0 119
0 119 -202 232 c-112 128 -297 341 -413 473 l-210 241 -60 3 c-84 4 -99 -2
-142 -60 -35 -49 -239 -312 -506 -653 -131 -168 -187 -222 -187 -182 0 8 93
139 206 293 114 153 248 335 298 403 50 69 103 139 119 157 15 17 27 34 27 37
0 7 -2860 8 -2870 2 -4 -3 8 -21 27 -42 54 -59 623 -836 623 -850 0 -23 -25
-14 -56 20 -29 30 -136 166 -514 652 -89 116 -168 213 -174 217 -6 4 -42 8
-81 7 l-70 0 -75 -86z m3010 17 c0 -5 -8 -10 -17 -10 -15 0 -16 2 -3 10 19 12
20 12 20 0z m-143 -216 c-3 -3 -12 -4 -19 -1 -8 3 -5 6 6 6 11 1 17 -2 13 -5z
m-37 -68 c0 -2 -9 -6 -20 -9 -11 -3 -20 -1 -20 4 0 5 9 9 20 9 11 0 20 -2 20
-4z m-114 -170 c-40 -63 -62 -75 -38 -21 9 19 21 35 27 35 7 0 17 12 24 26 6
15 14 24 17 21 3 -3 -10 -30 -30 -61z m-1890 3 c9 -15 -23 -10 -35 5 -10 12
-8 13 9 9 11 -3 23 -9 26 -14z m44 -69 c12 -8 11 -10 -7 -10 -12 0 -25 5 -28
10 -8 13 15 13 35 0z m1785 -20 c-3 -5 -11 -10 -16 -10 -6 0 -7 5 -4 10 3 6
11 10 16 10 6 0 7 -4 4 -10z m-17 -32 c-3 -7 -13 -14 -24 -15 -10 -2 -13 0 -6
3 6 3 10 10 6 15 -3 5 2 9 11 9 9 0 15 -6 13 -12z m189 -753 c169 -196 310
-360 312 -366 1 -6 -112 -123 -253 -261 l-257 -251 30 -18 c32 -19 71 -85 71
-118 0 -11 5 -23 11 -26 6 -4 8 -13 5 -20 -3 -8 0 -16 7 -19 7 -2 3 -5 -7 -5
-20 -1 -20 -1 0 -16 13 -10 14 -14 5 -15 -10 0 -11 -3 -2 -14 15 -17 4 -46
-18 -46 -14 -1 -14 -2 2 -14 24 -19 21 -24 -10 -19 l-28 4 25 -15 c25 -15 25
-15 -20 -16 -37 -1 -41 -3 -22 -10 12 -5 28 -7 36 -4 8 3 23 1 33 -5 17 -10
17 -10 -1 -11 -20 0 -20 0 0 -16 18 -14 16 -15 -28 -11 -26 3 -45 1 -42 -4 3
-5 21 -9 40 -9 50 0 41 -17 -13 -25 -59 -9 -58 -9 -58 13 -1 9 -5 28 -9 41 -6
16 -4 26 5 32 12 7 12 9 0 9 -7 0 -11 6 -7 15 3 8 2 15 -2 15 -4 0 -8 10 -9
23 -1 12 -7 85 -13 162 l-12 140 260 255 260 255 -297 347 -296 348 -770 0
-771 0 -297 -347 -297 -348 260 -254 261 -254 -6 -146 c-4 -80 -8 -151 -10
-158 -2 -7 0 -15 5 -18 7 -4 6 -13 0 -25 -5 -10 -7 -26 -4 -35 9 -23 -12 -35
-65 -35 -50 0 -49 10 0 16 52 6 46 14 -10 13 -28 -1 -55 1 -58 5 -3 3 3 6 15
6 22 0 30 16 12 22 -15 5 -19 60 -6 77 8 10 8 15 -1 18 -19 7 -16 33 3 33 14
0 14 3 4 15 -10 12 -10 15 1 15 11 0 11 2 1 9 -8 4 -11 19 -8 34 3 15 0 27 -5
27 -6 0 -4 7 5 15 8 8 18 25 21 38 8 24 51 67 69 67 6 1 -107 117 -251 258
l-263 257 316 363 315 362 763 0 764 0 309 -355z m-1467 165 l0 -130 223 0
222 0 130 130 130 130 202 0 203 0 0 -257 1 -258 89 -104 c50 -58 90 -108 90
-112 0 -5 -40 -47 -90 -95 l-90 -87 -2 -246 c-3 -231 -4 -246 -22 -249 -13 -3
-109 88 -346 327 -181 182 -335 331 -343 331 -8 0 -161 -148 -340 -330 -217
-219 -333 -330 -347 -330 -20 0 -20 5 -20 244 l0 244 -100 94 -101 94 101 116
100 116 0 251 0 251 155 0 155 0 0 -130z m500 -1100 c-11 -7 1 -10 40 -11 46
-1 50 -3 25 -9 -26 -7 -24 -8 20 -9 36 -1 46 -4 35 -11 -12 -8 -10 -10 8 -10
13 0 21 -4 17 -9 -3 -5 5 -13 17 -17 l23 -8 -25 -7 c-23 -6 -23 -7 -3 -8 30
-1 38 -19 11 -24 -20 -4 -20 -4 4 -6 33 -1 48 -21 16 -22 -25 -1 -20 -3 27
-14 l30 -7 -35 -13 -35 -13 35 -2 c29 -1 32 -3 15 -10 -13 -6 -15 -9 -5 -9 13
-1 13 -2 0 -11 -11 -7 -7 -10 20 -11 19 -1 27 -3 18 -6 -10 -2 -18 -9 -18 -14
0 -6 5 -7 10 -4 6 3 10 1 10 -4 0 -6 -18 -11 -41 -11 -32 0 -40 -3 -35 -15 4
-13 -10 -15 -87 -17 -134 -3 -177 -5 -222 -8 -22 -2 -51 2 -65 10 -15 8 -25 9
-28 2 -3 -11 -82 -4 -96 9 -6 5 -18 9 -29 9 -10 0 -15 4 -12 10 3 6 -15 8 -47
5 -29 -2 -45 -1 -35 1 20 6 22 20 5 27 -7 3 7 6 32 8 l45 2 -35 7 c-19 4 -28
8 -20 9 13 1 13 2 0 11 -11 7 -5 10 25 11 l40 2 -35 7 c-19 4 -29 8 -22 9 7 0
10 6 7 11 -3 6 -2 10 4 10 6 0 8 7 5 15 -5 12 3 15 32 16 32 2 34 3 11 6 -19
3 -27 9 -23 18 3 9 -4 15 -17 18 -19 4 -18 4 4 6 17 0 33 11 44 27 14 22 23
25 52 22 28 -3 32 -2 19 7 -18 14 -1 16 114 19 39 0 70 4 70 7 0 4 21 7 48 7
33 1 43 -1 32 -8z m-1040 -396 c0 -2 -15 -4 -32 -3 -27 0 -29 2 -13 8 18 8 45
4 45 -5z m89 -30 c2 -2 -9 -4 -25 -4 -16 0 -40 -3 -53 -7 -16 -4 -22 -3 -18 5
4 5 1 13 -5 16 -7 3 12 3 42 0 30 -3 56 -7 59 -10z m1806 6 c4 -6 -9 -10 -32
-10 -28 0 -34 3 -23 10 20 13 47 13 55 0z m15 -40 c0 -5 8 -10 18 -11 14 0 14
-2 -3 -9 -11 -5 -14 -9 -7 -9 20 -1 14 -17 -13 -31 -16 -9 -21 -16 -14 -21 8
-5 7 -9 -2 -15 -7 -4 -14 -3 -17 4 -2 7 -11 12 -19 12 -13 0 -13 3 -3 15 10
12 10 15 -4 15 -25 0 -19 30 7 31 21 1 21 1 -3 9 l-25 7 30 5 c51 8 55 8 55
-2z m-1830 -20 c12 -8 10 -10 -10 -11 -23 0 -23 -1 -5 -9 15 -7 16 -9 4 -9 -9
-1 -30 -4 -46 -7 -23 -4 -30 -2 -30 10 0 10 9 16 26 16 21 0 23 2 11 10 -12 8
-10 10 10 10 14 0 32 -5 40 -10z m-28 -47 c-12 -2 -20 -9 -17 -14 7 -11 -1
-11 -35 -2 l-25 7 30 7 c17 4 39 7 50 6 16 0 16 -1 -3 -4z m83 -30 c4 -21 8
-45 9 -53 3 -14 9 5 21 65 7 33 23 32 30 -2 17 -79 18 -80 26 -30 4 27 10 52
13 55 15 15 17 -14 6 -92 -15 -100 -35 -116 -46 -36 -8 59 -19 57 -28 -5 -11
-71 -32 -57 -45 30 -13 92 -14 105 -1 105 5 0 12 -17 15 -37z m244 -25 c6 -35
14 -75 18 -90 4 -22 2 -28 -11 -28 -9 0 -16 8 -16 20 0 13 -7 20 -20 20 -13 0
-20 -7 -20 -20 0 -11 -7 -20 -15 -20 -18 0 -18 -7 0 82 19 92 21 98 38 98 9 0
18 -22 26 -62z m156 45 c12 -11 15 -24 10 -42 -9 -37 -10 -62 -1 -93 6 -22 5
-28 -7 -28 -9 0 -18 13 -22 33 -11 51 -20 55 -25 13 -3 -22 -11 -41 -17 -44
-10 -3 -13 19 -13 87 l0 91 29 0 c16 0 37 -7 46 -17z m155 2 c18 -22 24 -88
10 -129 -9 -29 -16 -36 -38 -36 -15 0 -38 -3 -52 -5 -14 -3 -19 -3 -12 1 8 4
12 33 12 95 l0 89 34 0 c18 0 39 -7 46 -15z m797 -38 l22 -52 0 53 c1 39 5 52
16 52 12 0 15 -17 15 -90 0 -106 -14 -117 -47 -37 l-22 52 0 -52 c-1 -40 -5
-53 -16 -53 -12 0 -15 17 -15 90 0 106 14 117 47 37z m191 41 c16 -16 16 -61
0 -56 -7 3 -14 14 -16 26 -4 29 -30 28 -34 0 -7 -49 4 -118 18 -118 8 0 14 10
14 25 0 16 6 25 15 25 8 0 15 -9 15 -19 0 -39 -11 -51 -46 -51 -27 0 -37 5
-43 23 -12 31 -7 123 9 142 15 18 51 20 68 3z m-1598 -38 c0 -13 -41 -22 -81
-17 -28 3 -25 4 14 5 26 1 47 7 47 12 0 6 5 10 10 10 6 0 10 -4 10 -10z m1150
-10 c-8 -5 -24 -9 -35 -9 l-20 0 20 9 c11 5 27 9 35 9 13 1 13 0 0 -9z m647 4
c-3 -3 -12 -4 -19 -1 -8 3 -5 6 6 6 11 1 17 -2 13 -5z m63 -14 c-25 -5 -28 -8
-12 -9 14 0 22 -6 19 -13 -2 -8 -23 -13 -55 -13 -29 0 -52 1 -52 3 0 1 10 7
23 12 20 8 21 9 2 10 -35 3 25 18 70 18 l40 -1 -35 -7z m1127 -6 c-3 -3 -12
-4 -19 -1 -8 3 -5 6 6 6 11 1 17 -2 13 -5z m-2969 -13 c4 -2 -2 -6 -13 -11
-28 -12 -75 -12 -75 0 0 5 7 6 17 3 9 -4 14 -2 11 3 -5 8 35 11 60 5z m2 -78
c0 -3 -12 -2 -27 1 -21 5 -24 4 -13 -4 11 -7 4 -10 -28 -10 -36 0 -41 2 -30
14 7 8 15 10 16 5 4 -11 23 -12 21 -1 -3 18 3 20 31 11 17 -6 30 -13 30 -16z
m1823 20 c-7 -2 -19 -2 -25 0 -7 3 -2 5 12 5 14 0 19 -2 13 -5z m-143 -18 c0
-8 -7 -15 -15 -15 -8 0 -15 7 -15 15 0 8 7 15 15 15 8 0 15 -7 15 -15z m193
-12 c-13 -2 -33 -2 -45 0 -13 2 -3 4 22 4 25 0 35 -2 23 -4z m-1875 -18 c-7
-6 -101 -14 -95 -9 9 10 70 21 85 16 7 -2 12 -6 10 -7z m1867 -5 c18 -8 18 -9
2 -9 -25 -1 -11 -21 16 -22 21 0 21 -1 2 -9 -11 -5 -31 -8 -45 -8 l-25 0 25 7
25 7 -24 6 c-12 4 -20 11 -17 16 3 6 0 13 -6 15 -7 3 -4 5 7 6 11 0 29 -4 40
-9z m-568 -16 c-3 -3 -12 -4 -19 -1 -8 3 -5 6 6 6 11 1 17 -2 13 -5z m513 -4
c0 -5 -7 -10 -15 -10 -8 0 -15 5 -15 10 0 6 7 10 15 10 8 0 15 -4 15 -10z
m-1820 -60 c0 -5 -15 -9 -32 -9 l-33 1 30 8 c17 4 31 8 33 9 1 0 2 -3 2 -9z
m-10 -40 c24 -8 24 -8 -5 -8 -16 0 -41 4 -55 8 -24 8 -24 8 5 8 17 0 41 -4 55
-8z m2747 -56 c-3 -3 -12 -4 -19 -1 -8 3 -5 6 6 6 11 1 17 -2 13 -5z m-880
-10 c-3 -3 -12 -4 -19 -1 -8 3 -5 6 6 6 11 1 17 -2 13 -5z m-1860 -30 c-3 -3
-12 -4 -19 -1 -8 3 -5 6 6 6 11 1 17 -2 13 -5z m533 -4 c0 -5 -4 -10 -10 -10
-5 0 -10 5 -10 10 0 6 5 10 10 10 6 0 10 -4 10 -10z m2503 -17 c-7 -2 -21 -2
-30 0 -10 3 -4 5 12 5 17 0 24 -2 18 -5z m-4270 -50 c-7 -2 -19 -2 -25 0 -7 3
-2 5 12 5 14 0 19 -2 13 -5z m4317 -13 c0 -5 -2 -10 -4 -10 -3 0 -8 5 -11 10
-3 6 -1 10 4 10 6 0 11 -4 11 -10z m-1247 -27 c-7 -2 -19 -2 -25 0 -7 3 -2 5
12 5 14 0 19 -2 13 -5z m92 -23 c4 -6 -7 -10 -24 -10 -17 0 -31 5 -31 10 0 6
11 10 24 10 14 0 28 -4 31 -10z m845 -60 c-34 -11 -60 -11 -35 0 11 5 29 8 40
8 16 0 15 -2 -5 -8z m-2312 -7 c-10 -2 -28 -2 -40 0 -13 2 -5 4 17 4 22 1 32
-1 23 -4z m995 -10 c-7 -2 -21 -2 -30 0 -10 3 -4 5 12 5 17 0 24 -2 18 -5z
m-2598 -73 c3 -5 16 -10 27 -10 28 0 18 -10 -16 -16 -19 -3 -24 -1 -20 10 3 8
-2 16 -13 19 -15 4 -16 5 -1 6 9 0 20 -3 23 -9z m88 -53 c3 -8 0 -14 -6 -14
-7 0 -39 -3 -72 -7 -68 -9 -69 -5 -5 17 56 20 76 21 83 4z m1372 3 c-3 -5 -16
-10 -28 -9 -20 1 -20 2 3 9 14 4 26 8 28 9 2 1 0 -3 -3 -9z m-1407 -57 c-16
-2 -28 -8 -28 -13 0 -4 9 -6 20 -3 11 3 26 1 33 -4 6 -6 24 -13 39 -17 19 -4
26 -11 21 -22 -3 -8 2 -21 13 -28 15 -12 16 -16 5 -30 -7 -9 -21 -16 -29 -16
-14 0 -14 -1 0 -12 9 -7 19 -23 22 -34 6 -20 1 -23 -59 -34 -62 -12 -64 -13
-41 -25 14 -8 42 -11 70 -8 49 6 53 3 34 -26 -10 -17 -15 -18 -37 -7 -14 7
-52 16 -85 20 -43 5 -63 12 -77 29 -27 32 -23 40 16 34 40 -7 45 -1 13 13 -20
9 -19 10 9 7 39 -4 34 9 -7 18 -33 7 -40 21 -12 28 13 3 10 7 -13 17 -30 14
-30 14 -5 18 13 2 42 -1 63 -8 21 -6 41 -9 43 -7 3 3 -16 11 -41 18 -50 15
-59 29 -19 29 14 0 23 4 19 10 -3 6 -20 10 -36 10 -18 0 -28 4 -24 10 3 6 14
10 25 10 10 0 20 7 24 15 3 10 17 14 38 14 30 -2 31 -2 6 -6z m4052 -53 c-19
-5 -41 -4 -50 0 -10 6 1 9 35 9 48 -1 49 -1 15 -9z m-2450 -4 c0 -2 -9 -6 -20
-9 -11 -3 -18 -1 -14 4 5 9 34 13 34 5z m2280 -66 c-34 -11 -60 -11 -35 0 11
5 29 8 40 8 16 0 15 -2 -5 -8z m170 1 c0 -5 -9 -7 -20 -4 -11 3 -20 7 -20 9 0
2 9 4 20 4 11 0 20 -4 20 -9z m-2443 -7 c-3 -3 -12 -4 -19 -1 -8 3 -5 6 6 6
11 1 17 -2 13 -5z m1069 -6 c-10 -5 -23 -5 -33 1 -15 8 -11 10 15 9 26 -1 30
-3 18 -10z m1235 -4 c-25 -8 -47 -12 -49 -9 -5 5 56 23 78 23 8 0 -5 -6 -29
-14z m-2232 2 c-2 -2 -20 -6 -39 -10 -25 -4 -31 -3 -20 4 14 9 69 15 59 6z
m2486 -25 c4 -13 19 -22 45 -26 43 -7 55 -25 16 -25 -13 0 -29 -7 -36 -15 -9
-11 -17 -12 -32 -4 -14 8 -23 8 -31 0 -13 -13 -41 -15 -33 -2 3 5 -1 14 -9 21
-26 22 14 67 62 69 6 1 14 -8 18 -18z m-1435 -51 c0 -5 -4 -10 -10 -10 -5 0
-10 5 -10 10 0 6 5 10 10 10 6 0 10 -4 10 -10z m1215 0 c-11 -5 -27 -9 -35 -9
-9 0 -8 4 5 9 11 5 27 9 35 9 9 0 8 -4 -5 -9z m-2472 -11 c-8 -8 -16 -8 -30 0
-16 9 -14 10 12 11 21 0 26 -3 18 -11z m102 1 c-28 -12 -63 -12 -70 0 -4 6 12
10 42 9 36 0 43 -3 28 -9z m1170 -31 c-8 -11 -45 -12 -64 0 -9 6 1 9 28 9 23
1 39 -3 36 -9z m118 -12 c4 -10 -5 -13 -29 -13 -19 1 -34 4 -34 7 0 22 55 27
63 6z m1320 6 c-7 -2 -19 -2 -25 0 -7 3 -2 5 12 5 14 0 19 -2 13 -5z m-2540
-60 c-7 -2 -19 -2 -25 0 -7 3 -2 5 12 5 14 0 19 -2 13 -5z m80 -19 c-3 -9 -9
-12 -12 -7 -3 4 -10 11 -15 16 -5 4 0 7 12 7 15 0 20 -4 15 -16z m-1675 -31
c15 -3 19 -8 12 -13 -15 -9 -61 0 -54 11 6 11 11 11 42 2z m2922 -9 c0 -2 -7
-4 -15 -4 -8 0 -15 4 -15 10 0 5 7 7 15 4 8 -4 15 -8 15 -10z m-100 -4 c0 -13
-11 -13 -30 0 -12 8 -11 10 8 10 12 0 22 -4 22 -10z m-320 -10 c0 -5 -2 -10
-4 -10 -3 0 -8 5 -11 10 -3 6 -1 10 4 10 6 0 11 -4 11 -10z m-945 -10 c-11 -5
-31 -9 -45 -9 -20 -1 -22 1 -10 9 8 5 29 9 45 9 26 0 27 -2 10 -9z m1208 3
c-7 -2 -19 -2 -25 0 -7 3 -2 5 12 5 14 0 19 -2 13 -5z m-1133 -12 c-22 -11
-131 -34 -137 -28 -7 8 87 35 122 36 21 0 25 -2 15 -8z m-155 -11 c-3 -5 -13
-10 -21 -10 -8 0 -14 5 -14 10 0 6 9 10 21 10 11 0 17 -4 14 -10z m2783 -40
c11 -17 10 -20 -7 -20 -43 0 -71 31 -38 43 18 6 31 -1 45 -23z m-1438 -10 c0
-5 -11 -10 -24 -10 -14 0 -28 5 -31 10 -4 6 7 10 24 10 17 0 31 -4 31 -10z
m-1242 -25 c-8 -8 -68 -25 -68 -19 0 6 41 23 59 23 8 1 12 -1 9 -4z m1169 -1
c-3 -3 -12 -4 -19 -1 -8 3 -5 6 6 6 11 1 17 -2 13 -5z m-1177 -39 c-19 -7 -46
-13 -60 -13 -19 0 -16 3 15 13 54 17 91 18 45 0z"/>
<path d="M2100 2650 c0 -166 2 -191 16 -197 11 -4 72 50 212 191 l197 196
-213 0 -212 0 0 -190z"/>
<path d="M2793 2678 c-35 -35 -63 -70 -63 -79 0 -8 31 -45 68 -82 98 -97 103
-92 100 82 -3 127 -4 136 -23 139 -13 2 -40 -18 -82 -60z"/>
<path d="M1705 2495 c-44 -53 -81 -99 -83 -103 -1 -4 36 -45 83 -92 l85 -85 0
188 c0 103 -1 187 -2 187 -2 0 -39 -43 -83 -95z"/>
<path d="M3210 2398 l0 -173 82 82 81 82 -73 85 c-40 48 -76 89 -81 92 -5 3
-9 -71 -9 -168z"/>
<path d="M2298 1843 c7 -3 16 -2 19 1 4 3 -2 6 -13 5 -11 0 -14 -3 -6 -6z"/>
<path d="M2238 1733 c6 -2 18 -2 25 0 6 3 1 5 -13 5 -14 0 -19 -2 -12 -5z"/>
<path d="M2208 1633 c6 -2 18 -2 25 0 6 3 1 5 -13 5 -14 0 -19 -2 -12 -5z"/>
<path d="M1908 1294 c-5 -4 -8 -16 -8 -28 0 -14 3 -17 11 -9 6 6 9 19 7 28 -1
9 -6 13 -10 9z"/>
<path d="M2045 1340 c-9 -15 5 -52 18 -47 15 5 16 49 0 54 -6 2 -14 -1 -18 -7z"/>
<path d="M2200 1281 c0 -56 3 -69 14 -65 18 7 17 125 -1 131 -10 4 -13 -14
-13 -66z"/>
<path d="M555 481 c11 -4 34 -11 50 -14 l30 -6 -30 14 c-16 8 -39 14 -50 14
l-20 0 20 -8z"/>
<path d="M4678 393 c6 -2 18 -2 25 0 6 3 1 5 -13 5 -14 0 -19 -2 -12 -5z"/>
<path d="M4560 1360 c0 -5 5 -10 10 -10 6 0 10 5 10 10 0 6 -4 10 -10 10 -5 0
-10 -4 -10 -10z"/>
<path d="M2570 1325 c0 -28 6 -31 25 -11 10 10 11 16 2 25 -18 18 -27 13 -27
-14z"/>
<path d="M2468 1273 c-11 -3 -18 -13 -17 -26 0 -15 2 -17 6 -7 4 8 13 20 22
27 17 13 16 13 -11 6z"/>
<path d="M2748 1273 c-13 -3 -18 -14 -17 -36 0 -26 2 -29 8 -12 5 11 6 24 3
29 -3 5 -1 7 4 3 5 -3 18 1 29 9 19 14 10 17 -27 7z"/>
<path d="M2570 1255 c0 -8 5 -15 10 -15 6 0 10 7 10 15 0 8 -4 15 -10 15 -5 0
-10 -7 -10 -15z"/>
<path d="M2853 1243 c-70 -5 -68 -18 2 -18 37 0 55 4 55 13 0 6 -1 11 -2 10
-2 -1 -27 -3 -55 -5z"/>
<path d="M2768 1223 c7 -3 16 -2 19 1 4 3 -2 6 -13 5 -11 0 -14 -3 -6 -6z"/>
<path d="M2845 1210 c-2 -3 12 -7 31 -8 19 -2 34 -1 34 2 0 7 -61 13 -65 6z"/>
<path d="M2745 1190 c-27 -7 -27 -8 -5 -8 14 0 36 4 50 8 20 6 21 8 5 8 -11 0
-33 -4 -50 -8z"/>
<path d="M2438 1183 c7 -3 16 -2 19 1 4 3 -2 6 -13 5 -11 0 -14 -3 -6 -6z"/>
<path d="M2768 1163 c7 -3 16 -2 19 1 4 3 -2 6 -13 5 -11 0 -14 -3 -6 -6z"/>
<path d="M2880 1126 c0 -2 9 -6 20 -9 11 -3 20 -1 20 4 0 5 -9 9 -20 9 -11 0
-20 -2 -20 -4z"/>
<path d="M2876 1092 c-2 -4 4 -8 15 -8 10 0 19 4 19 8 0 4 -6 8 -14 8 -8 0
-17 -4 -20 -8z"/>
<path d="M2858 1053 c7 -3 16 -2 19 1 4 3 -2 6 -13 5 -11 0 -14 -3 -6 -6z"/>
<path d="M2910 1050 c20 -13 40 -13 40 0 0 6 -12 10 -27 10 -22 0 -25 -2 -13
-10z"/>
<path d="M2808 1033 c12 -2 30 -2 40 0 9 3 -1 5 -23 4 -22 0 -30 -2 -17 -4z"/>
<path d="M4530 1036 c0 -2 7 -6 15 -10 8 -3 15 -1 15 4 0 6 -7 10 -15 10 -8 0
-15 -2 -15 -4z"/>
<path d="M4588 1033 c7 -3 16 -2 19 1 4 3 -2 6 -13 5 -11 0 -14 -3 -6 -6z"/>
<path d="M4620 1000 c0 -4 11 -10 25 -12 14 -3 25 -2 25 2 0 4 -11 10 -25 12
-14 3 -25 2 -25 -2z"/>
<path d="M2800 910 c0 -5 5 -10 10 -10 6 0 10 5 10 10 0 6 -4 10 -10 10 -5 0
-10 -4 -10 -10z"/>
<path d="M2830 910 c0 -5 5 -10 11 -10 5 0 7 5 4 10 -3 6 -8 10 -11 10 -2 0
-4 -4 -4 -10z"/>
<path d="M4428 903 c6 -2 18 -2 25 0 6 3 1 5 -13 5 -14 0 -19 -2 -12 -5z"/>
<path d="M2903 888 c1 -8 -8 -12 -24 -10 -15 1 -37 -2 -50 -7 -20 -8 -15 -10
28 -10 42 -1 54 3 63 19 9 16 8 20 -5 20 -8 0 -14 -6 -12 -12z"/>
<path d="M498 883 c7 -3 16 -2 19 1 4 3 -2 6 -13 5 -11 0 -14 -3 -6 -6z"/>
<path d="M4555 870 c27 -12 35 -12 35 0 0 6 -12 10 -27 9 -25 0 -26 -1 -8 -9z"/>
<path d="M2860 819 c0 -11 57 -12 64 -1 3 4 -11 9 -30 9 -19 1 -34 -3 -34 -8z"/>
<path d="M2803 813 c9 -2 23 -2 30 0 6 3 -1 5 -18 5 -16 0 -22 -2 -12 -5z"/>
<path d="M2750 780 c-13 -8 -12 -10 3 -10 9 0 17 5 17 10 0 12 -1 12 -20 0z"/>
<path d="M4553 783 c9 -2 23 -2 30 0 6 3 -1 5 -18 5 -16 0 -22 -2 -12 -5z"/>
<path d="M2830 771 l-35 -7 35 -6 c19 -3 53 -3 75 0 36 5 37 6 15 13 -30 8
-44 8 -90 0z"/>
<path d="M4528 743 c6 -2 18 -2 25 0 6 3 1 5 -13 5 -14 0 -19 -2 -12 -5z"/>
<path d="M568 733 c7 -3 16 -2 19 1 4 3 -2 6 -13 5 -11 0 -14 -3 -6 -6z"/>
<path d="M4590 730 c-11 -7 1 -9 40 -9 42 1 49 3 30 9 -35 11 -53 11 -70 0z"/>
<path d="M2875 710 c3 -5 -2 -10 -12 -11 -16 0 -16 -1 2 -8 11 -5 22 -4 23 0
2 5 10 9 18 9 9 0 12 5 9 10 -3 6 -15 10 -26 10 -11 0 -17 -4 -14 -10z"/>
<path d="M2910 650 c8 -5 26 -10 39 -10 32 0 24 6 -19 14 -25 4 -31 3 -20 -4z"/>
<path d="M2848 643 c7 -3 16 -2 19 1 4 3 -2 6 -13 5 -11 0 -14 -3 -6 -6z"/>
<path d="M2888 633 c7 -3 16 -2 19 1 4 3 -2 6 -13 5 -11 0 -14 -3 -6 -6z"/>
<path d="M2888 583 c7 -3 16 -2 19 1 4 3 -2 6 -13 5 -11 0 -14 -3 -6 -6z"/>
<path d="M2940 580 l-25 -8 25 0 c14 0 34 3 45 8 l20 9 -20 -1 c-11 0 -31 -4
-45 -8z"/>
<path d="M4713 575 c-19 -21 -16 -27 7 -13 11 7 20 16 20 20 0 12 -14 9 -27
-7z"/>
<path d="M2911 519 c-24 -5 -47 -11 -50 -15 -3 -3 9 -3 28 1 23 5 31 4 27 -4
-9 -14 18 -14 69 1 38 11 39 12 15 19 -31 9 -35 9 -89 -2z"/>
<path d="M2260 390 c0 -5 9 -10 21 -10 11 0 17 5 14 10 -3 6 -13 10 -21 10 -8
0 -14 -4 -14 -10z"/>
<path d="M2966 359 c-22 -5 -42 -12 -45 -15 -10 -9 73 8 84 17 5 5 7 9 5 8 -3
-1 -23 -5 -44 -10z"/>
<path d="M3035 350 c-13 -5 -14 -9 -5 -9 8 0 24 4 35 9 13 5 14 9 5 9 -8 0
-24 -4 -35 -9z"/>
<path d="M2227 340 c-49 -9 -54 -16 -20 -25 17 -4 29 -2 31 4 2 6 10 11 18 11
8 0 14 5 14 10 0 6 -1 9 -2 9 -2 -1 -20 -5 -41 -9z"/>
<path d="M2295 330 c-3 -5 1 -10 9 -10 9 0 16 5 16 10 0 6 -4 10 -9 10 -6 0
-13 -4 -16 -10z"/>
<path d="M2960 330 c-20 -6 -21 -8 -5 -8 11 0 29 3 40 8 25 11 -1 11 -35 0z"/>
<path d="M2858 283 c7 -3 16 -2 19 1 4 3 -2 6 -13 5 -11 0 -14 -3 -6 -6z"/>
<path d="M2938 283 c7 -3 16 -2 19 1 4 3 -2 6 -13 5 -11 0 -14 -3 -6 -6z"/>
<path d="M2997 276 c-10 -8 -38 -17 -63 -21 -27 -4 -44 -11 -41 -18 5 -17 164
-10 191 8 l20 15 -22 0 c-13 0 -30 7 -38 15 -19 18 -24 18 -47 1z"/>
<path d="M2578 253 c7 -3 16 -2 19 1 4 3 -2 6 -13 5 -11 0 -14 -3 -6 -6z"/>
<path d="M2640 250 l-25 -8 28 -1 c15 -1 27 4 27 9 0 6 -1 10 -2 9 -2 -1 -14
-5 -28 -9z"/>
<path d="M2838 223 c7 -3 16 -2 19 1 4 3 -2 6 -13 5 -11 0 -14 -3 -6 -6z"/>
<path d="M2780 210 c8 -5 22 -10 30 -10 13 0 13 1 0 10 -8 5 -22 10 -30 10
-13 0 -13 -1 0 -10z"/>
<path d="M2408 203 c7 -3 16 -2 19 1 4 3 -2 6 -13 5 -11 0 -14 -3 -6 -6z"/>
<path d="M2380 180 c20 -13 43 -13 35 0 -3 6 -16 10 -28 10 -18 0 -19 -2 -7
-10z"/>
<path d="M2555 150 c-38 -10 -60 -18 -47 -19 31 -1 111 19 118 30 3 5 4 9 2 8
-2 0 -34 -9 -73 -19z"/>
<path d="M2688 153 c6 -2 18 -2 25 0 6 3 1 5 -13 5 -14 0 -19 -2 -12 -5z"/>
<path d="M2391 63 c13 -15 35 -17 43 -4 3 5 -8 11 -24 13 -24 4 -27 2 -19 -9z"/>
<path d="M2600 50 c-10 -7 0 -8 33 -4 31 5 47 3 47 -4 0 -6 7 -9 15 -6 8 4 12
10 9 15 -7 12 -85 11 -104 -1z"/>
<path d="M3000 43 c-30 -8 -59 -18 -63 -23 -15 -14 92 -23 136 -12 23 6 54 13
70 17 42 9 33 27 -9 19 -27 -5 -35 -4 -30 5 10 15 -34 13 -104 -6z"/>
<path d="M562 21 c2 -7 7 -12 11 -12 12 1 9 15 -3 20 -7 2 -11 -2 -8 -8z"/>
<path d="M2350 10 c8 -5 26 -10 40 -10 20 0 22 2 10 10 -8 5 -26 10 -40 10
-20 0 -22 -2 -10 -10z"/>
<path d="M2770 10 c0 -5 5 -10 10 -10 6 0 10 5 10 10 0 6 -4 10 -10 10 -5 0
-10 -4 -10 -10z"/>
</g>
</svg>
